<svg xmlns="http://www.w3.org/2000/svg" viewBox="0 0 25 25"><defs><style>.a{fill:#fff;}</style></defs><path class="a" d="M304.5,340A12.5,12.5,0,1,1,317,327.5,12.514,12.514,0,0,1,304.5,340Zm-2.44-7.432h0q.389.115,1.132.314l-.626,2.336L304,335.6l.635-2.373a11.559,11.559,0,0,0,1.391.223q.267.024.531.024a5.563,5.563,0,0,0,.686-.042,3.189,3.189,0,0,0,1.048-.3,2.681,2.681,0,0,0,.823-.668,3.677,3.677,0,0,0,.614-1.083,2.869,2.869,0,0,0,.115-2.1,2.916,2.916,0,0,0-1.372-1.4,2.29,2.29,0,0,0,1.863-2.074,2.484,2.484,0,0,0-.054-1.157,2.209,2.209,0,0,0-.574-.931,4.391,4.391,0,0,0-.939-.7,8.671,8.671,0,0,0-1.247-.558l.629-2.345-1.434-.383-.61,2.28q-.373-.1-1.14-.285l.616-2.3-1.433-.384-.629,2.345q-.309-.073-.9-.233l-1.971-.537-.409,1.526,1.033.277a.768.768,0,0,1,.659.854l-.716,2.671a1.011,1.011,0,0,1,.147.049l-.148-.04-1,3.74a.513.513,0,0,1-.479.357.735.735,0,0,1-.188-.027l-1.033-.277-.744,1.626,1.861.5.51.141.5.139L300,334.529l1.434.384.628-2.344Zm3.231-1.2q-.159,0-.347-.015c-.212-.016-.4-.038-.553-.063s-.34-.061-.553-.108-.38-.087-.5-.119l-.445-.124-.344-.1.843-3.146c.05.014.2.05.445.11s.447.11.6.151.367.108.635.2a5.728,5.728,0,0,1,.666.268,4.691,4.691,0,0,1,.563.336,1.84,1.84,0,0,1,.459.428,1.465,1.465,0,0,1,.229.52,1.374,1.374,0,0,1-.236,1.084,1.258,1.258,0,0,1-.77.492,3.238,3.238,0,0,1-.495.076Q305.4,331.371,305.291,331.371Zm.811-4.679h-.069c-.194-.005-.364-.014-.507-.026a4.173,4.173,0,0,1-.526-.086l-.47-.106c-.106-.025-.251-.064-.433-.116l-.115-.033-.2-.058.765-2.857.178.045.191.048.5.125q.2.05.534.168a5.3,5.3,0,0,1,.553.228,3.207,3.207,0,0,1,.47.291,1.439,1.439,0,0,1,.377.38,1.342,1.342,0,0,1,.179.467,1.274,1.274,0,0,1-.03.576,1.323,1.323,0,0,1-.211.452.918.918,0,0,1-.347.291,2.582,2.582,0,0,1-.411.159A1.56,1.56,0,0,1,306.1,326.692Z" transform="translate(-292 -315)"/></svg>