<svg xmlns="http://www.w3.org/2000/svg" viewBox="0 0 14 14"><defs><style>.a{fill:#cecfd3;opacity:0.9;}</style></defs><path class="a" d="M7.5,2.833A1.333,1.333,0,0,0,6.167,4.167V9.5A1.333,1.333,0,0,0,7.5,10.833h5.333A1.333,1.333,0,0,0,14.167,9.5V4.167a1.333,1.333,0,0,0-1.333-1.333Zm4.667,9.333v.667A2.667,2.667,0,0,1,9.5,15.5H4.167A2.667,2.667,0,0,1,1.5,12.833V7.5A2.667,2.667,0,0,1,4.167,4.833h.667V4.167A2.667,2.667,0,0,1,7.5,1.5h5.333A2.667,2.667,0,0,1,15.5,4.167V9.5a2.667,2.667,0,0,1-2.667,2.667Zm-1.333,0H7.5A2.667,2.667,0,0,1,4.833,9.5V6.167H4.167A1.333,1.333,0,0,0,2.833,7.5v5.333a1.333,1.333,0,0,0,1.333,1.333H9.5a1.333,1.333,0,0,0,1.333-1.333Z" transform="translate(-1.5 -1.5)"/></svg>