<svg xmlns="http://www.w3.org/2000/svg" viewBox="0 0 23 23"><defs><style>.a{fill:#8bb5ca;}</style></defs><g transform="translate(0 0.001)"><path class="a" d="M61.608.741a.742.742,0,0,0-.871-.731,11.528,11.528,0,0,0-4.916,2.142.741.741,0,0,0-.078,1.117L59.569,7.1a.741.741,0,0,0,.884.124,4.77,4.77,0,0,1,.67-.307.741.741,0,0,0,.485-.7Z" transform="translate(-51.194 0)"/><path class="a" d="M163.493,6.217a.741.741,0,0,0,.486.7,4.811,4.811,0,0,1,2.848,2.848.741.741,0,0,0,.7.485H173a.741.741,0,0,0,.73-.872A11.6,11.6,0,0,0,164.365.012a.742.742,0,0,0-.872.73Z" transform="translate(-150.739 -0.001)"/><path class="a" d="M16.783,69.376a.741.741,0,0,0-.7.486,4.8,4.8,0,1,1-9-3.337.742.742,0,0,0-.17-.784L2.991,61.812a.742.742,0,0,0-1.147.122,11.585,11.585,0,1,0,21.144,8.314.742.742,0,0,0-.73-.872H16.783Z" transform="translate(0 -56.79)"/></g></svg>