<svg xmlns="http://www.w3.org/2000/svg" viewBox="0 0 22.55 25.001"><defs><style>.a{fill:#fff;}</style></defs><path class="a" d="M303.275,349a3.343,3.343,0,0,1-1.67-.448l-7.935-4.575a3.35,3.35,0,0,1-1.67-2.893v-9.165a3.35,3.35,0,0,1,1.67-2.893l7.934-4.581a3.339,3.339,0,0,1,3.34,0l7.934,4.581a3.349,3.349,0,0,1,1.67,2.893v9.163a3.352,3.352,0,0,1-1.669,2.888l-7.934,4.581A3.347,3.347,0,0,1,303.275,349Zm-4.947-19.244-1.7.981a3.353,3.353,0,0,0-1.67,2.893v5.744a3.353,3.353,0,0,0,1.67,2.893l4.975,2.871a3.335,3.335,0,0,0,3.34,0l4.975-2.871a3.352,3.352,0,0,0,1.671-2.893v-5.744a3.348,3.348,0,0,0-1.672-2.893l-1.7-.98v8.635a1.673,1.673,0,0,1-.833,1.445l-3.28,1.893a1.663,1.663,0,0,1-1.668,0l-3.28-1.893a1.673,1.673,0,0,1-.834-1.445v-8.636h0Zm4.947-2.34h-.027a3.364,3.364,0,0,0-1.643.447l-.014,1.238v7.323a1.684,1.684,0,0,0,3.369,0v-8.553a3.38,3.38,0,0,0-1.629-.454Z" transform="translate(-292 -324)"/></svg>