<svg xmlns="http://www.w3.org/2000/svg" viewBox="0 0 117.3 22.323"><defs><style>.a{fill:#23adff;}.b{fill:#fff;}</style></defs><g transform="translate(-4 -3.486)"><g transform="translate(75.967 0.002)"><path class="a" d="M274.983,17.041l.713-.41a1.648,1.648,0,0,1,1.648,0l.713.41,2.28-3.95-.625-.36-2.371-1.367a1.648,1.648,0,0,0-1.648,0L272.7,13.091Z" transform="translate(-263.38 -7.659)"/><path class="a" d="M272.166,23.3l-2.912-1.683-2.28,3.947h0l.626.366a1.708,1.708,0,0,1,.869,1.482V31.6a1.708,1.708,0,0,1-.854,1.476l-3.634,2.108a1.7,1.7,0,0,1-1.708,0l-3.625-2.1a1.708,1.708,0,0,1-.854-1.479v-4.2a1.7,1.7,0,0,1,.854-1.476l.625-.366-2.28-3.947-.657.378-1.876,1.073a2.5,2.5,0,0,0-1.251,2.164v9.007a1.708,1.708,0,0,0,.873,1.464l8.185,4.726a1.708,1.708,0,0,0,1.708,0l8.185-4.726a1.708,1.708,0,0,0,.86-1.464V24.782A1.708,1.708,0,0,0,272.166,23.3Z" transform="translate(-249.986 -14.859)"/></g><path class="b" d="M4.816,25.572v3.753h6.443a1.066,1.066,0,0,1,1.066,1.066v1.576a1.066,1.066,0,0,1-1.066,1.07H4.816V37.8a1.066,1.066,0,0,1-1.063,1.07H1.066A1.066,1.066,0,0,1,0,37.8V22.916A1.066,1.066,0,0,1,1.066,21.85H12.282a1.066,1.066,0,0,1,1.066,1.066V24.5a1.066,1.066,0,0,1-1.066,1.066Z" transform="translate(4 -15.015)"/><path class="b" d="M56.863,21.85h2.583a1.117,1.117,0,0,1,1.117,1.117V35.054h7.006a1.117,1.117,0,0,1,1.117,1.117v1.586a1.117,1.117,0,0,1-1.117,1.117h-10.7a1.117,1.117,0,0,1-1.117-1.117V22.963A1.117,1.117,0,0,1,56.863,21.85Z" transform="translate(-34.314 -15.015)"/><path class="b" d="M110.1,37.181a7.86,7.86,0,0,1-2.1-5.867v-7.85a1.564,1.564,0,0,1,1.564-1.564h1.658a1.564,1.564,0,0,1,1.564,1.564v7.709q0,4.085,3.234,4.085t3.24-4.085V23.464a1.564,1.564,0,0,1,1.564-1.564h1.586a1.564,1.564,0,0,1,1.564,1.564v7.85a7.844,7.844,0,0,1-2.1,5.861,9.415,9.415,0,0,1-11.766.006Z" transform="translate(-70.223 -15.05)"/><path class="b" d="M183.823,38.3l-3.149-4.71-3.1,4.691a1.276,1.276,0,0,1-1.066.575h-2.314a1.276,1.276,0,0,1-1.035-2.023L177.9,30.25l-4.513-6.389a1.276,1.276,0,0,1,1.045-2.011h2.292a1.276,1.276,0,0,1,1.048.55l3.024,4.363,2.974-4.357a1.276,1.276,0,0,1,1.054-.557h2.036a1.276,1.276,0,0,1,1.035,2.023l-4.472,6.2,4.87,6.78a1.276,1.276,0,0,1-1.035,2.02h-2.374A1.276,1.276,0,0,1,183.823,38.3Z" transform="translate(-114.837 -15.015)"/><path class="b" d="M365.061,23.417V37.306A1.564,1.564,0,0,1,363.5,38.87h-1.661a1.564,1.564,0,0,1-1.207-.566l-7.046-8.5v7.506a1.564,1.564,0,0,1-1.564,1.564h-1.586a1.564,1.564,0,0,1-1.564-1.564V23.417a1.564,1.564,0,0,1,1.564-1.564h1.661a1.564,1.564,0,0,1,1.195.563l7.043,8.5V23.414A1.564,1.564,0,0,1,361.9,21.85h1.586a1.564,1.564,0,0,1,1.579,1.567Z" transform="translate(-243.761 -15.015)"/></g></svg>