<svg xmlns="http://www.w3.org/2000/svg" viewBox="0 0 54.391 40.792"><defs><style>.a{fill:#e2e4e5;}</style></defs><g transform="translate(0 -64.005)"><path class="a" d="M28.9,276.665H1.7a1.7,1.7,0,0,1-1.329-2.76l13.6-17a1.757,1.757,0,0,1,2.658,0l13.6,17a1.7,1.7,0,0,1-1.329,2.76Zm-23.66-3.4H25.36L15.3,260.688Z" transform="translate(0 -171.868)"/><path class="a" d="M238.865,247.787h-23.8a1.7,1.7,0,0,1-1.329-.639l-5.065-6.319a1.7,1.7,0,0,1,.177-2.315l15.263-14.073a1.7,1.7,0,0,1,2.3,0l13.6,12.544a1.7,1.7,0,0,1,.547,1.251v7.853A1.7,1.7,0,0,1,238.865,247.787Zm-22.98-3.4h21.28v-5.408L225.268,228l-12.948,11.935Z" transform="translate(-186.174 -142.99)"/><path class="a" d="M51,104.8H3.408a3.4,3.4,0,0,1-3.4-3.4V67.4a3.4,3.4,0,0,1,3.4-3.4H51a3.4,3.4,0,0,1,3.4,3.4V101.4A3.4,3.4,0,0,1,51,104.8ZM3.408,67.4V101.4H51V67.4Z" transform="translate(-0.008)"/></g></svg>