<svg xmlns="http://www.w3.org/2000/svg" viewBox="0 0 16 15.999"><defs><style>.a{fill:#f9ac26;}</style></defs><path class="a" d="M-4130.561-387.561a8.008,8.008,0,0,1,8-8,8.009,8.009,0,0,1,8,8,8.009,8.009,0,0,1-8,8A8.008,8.008,0,0,1-4130.561-387.561Zm1.7,0a6.3,6.3,0,0,0,6.3,6.3,6.3,6.3,0,0,0,6.3-6.3,6.3,6.3,0,0,0-6.3-6.3A6.3,6.3,0,0,0-4128.858-387.561Zm6.213,1.071a.66.66,0,0,1-.66-.659v-4.981a.66.66,0,0,1,.66-.659.66.66,0,0,1,.659.659v4.323h3.594a.659.659,0,0,1,.659.659.659.659,0,0,1-.659.659Z" transform="translate(4130.561 395.56)"/></svg>