<svg xmlns="http://www.w3.org/2000/svg" viewBox="0 0 22.707 15.5"><defs><style>.a{fill:#8bb5ca;}</style></defs><g transform="translate(-367.217 -260.886)"><path class="a" d="M1,11.45A2.316,2.316,0,0,1,3.235,9.081H7.622a2.318,2.318,0,0,1,2.235,2.393v1.2a1.2,1.2,0,0,1-.346.846,1.17,1.17,0,0,1-.835.35h-6.5A1.189,1.189,0,0,1,1,12.67v-1.2q0-.012,0-.024ZM5.429,8.483A2.992,2.992,0,1,1,8.381,5.491,2.972,2.972,0,0,1,5.429,8.483Z" transform="translate(366.217 262.52)"/><path class="a" d="M1,14.7a3.158,3.158,0,0,1,3.048-3.23H10.03a3.16,3.16,0,0,1,3.048,3.263v1.632a1.637,1.637,0,0,1-.472,1.154A1.6,1.6,0,0,1,11.467,18H2.61A1.621,1.621,0,0,1,1,16.368V14.737q0-.016,0-.033Zm6.039-4.046a4.079,4.079,0,1,1,4.026-4.079A4.053,4.053,0,0,1,7.039,10.658Z" transform="translate(376.846 258.386)"/></g></svg>