<svg xmlns="http://www.w3.org/2000/svg" viewBox="0 0 18 19.2">
  <defs>
    <style>
      .cls-1 {
        fill: #8bb5ca;
      }
    </style>
  </defs>
  <g id="Icon" transform="translate(-374.5 -228.4)">
    <path id="Icon-2" data-name="Icon" class="cls-1" d="M11,12.471A5.443,5.443,0,0,1,5.6,6.986a5.4,5.4,0,1,1,10.8,0A5.443,5.443,0,0,1,11,12.471Zm-9,6.4V17.043a3.629,3.629,0,0,1,3.6-3.657H16.4A3.629,3.629,0,0,1,20,17.043v1.829A1.814,1.814,0,0,1,18.2,20.7H3.8A1.814,1.814,0,0,1,2,18.871Z" transform="translate(372.5 226.9)"/>
  </g>
</svg>
