<svg xmlns="http://www.w3.org/2000/svg" viewBox="0 0 103.909 83"><defs><style>.a{fill:#b6d5e4;}</style></defs><path class="a" d="M7.908,260V191a4,4,0,0,1,8,0v69Zm-12,0V191a4,4,0,0,1,4-4,4,4,0,0,1,4,4v69Zm-11.987,0V213a4,4,0,0,1,4-4,4,4,0,0,1,4,4v47Zm-11.987,0V184a4,4,0,0,1,4-4,4,4,0,0,1,4,4v76Zm-11.986,0V191a4,4,0,0,1,4-4,4,4,0,0,1,4,4v69Zm-11.987,0V219a4,4,0,0,1,4-4,4,4,0,0,1,4,4v41Zm-11.987,0V193a4,4,0,0,1,4-4,4,4,0,0,1,4,4v67Zm-11.987,0V181a4,4,0,0,1,4-4,4,4,0,0,1,4,4v79ZM-88,260V234a4,4,0,0,1,4-4,4,4,0,0,1,4,4v26Z" transform="translate(88 -177)"/></svg>