<svg xmlns="http://www.w3.org/2000/svg" viewBox="0 0 25 25"><defs><style>.a{fill:#fff;}</style></defs><path class="a" d="M12.5,0A12.5,12.5,0,1,0,25,12.5,12.5,12.5,0,0,0,12.5,0Zm3.409,17.326a3.971,3.971,0,0,1-2.664,1.218v1.768h-1.48V18.553a3.877,3.877,0,0,1-3.6-3.375l2.289-.6a1.99,1.99,0,0,0,2.106,1.933,1.631,1.631,0,0,0,1.231-.414,1.4,1.4,0,0,0,.394-1,1.1,1.1,0,0,0-.394-.919,7.115,7.115,0,0,0-1.752-.793,10.308,10.308,0,0,1-1.907-.838A3.15,3.15,0,0,1,9.019,11.4a3.432,3.432,0,0,1-.429-1.736,3.85,3.85,0,0,1,.766-2.338,3.423,3.423,0,0,1,2.408-1.268V4.688h1.48V6.053a3.58,3.58,0,0,1,3.212,2.808L14.418,9.7q-.6-1.721-1.845-1.721a1.346,1.346,0,0,0-1.006.385,1.278,1.278,0,0,0-.38.932,1.044,1.044,0,0,0,.366.858,6.29,6.29,0,0,0,1.566.739,13.894,13.894,0,0,1,2.068.909,3.249,3.249,0,0,1,1.2,1.183,3.4,3.4,0,0,1,.447,1.764A3.732,3.732,0,0,1,15.909,17.326Z"/></svg>